<svg width="127" height="42" viewBox="0 0 127 42" fill="none" xmlns="http://www.w3.org/2000/svg">
<path fill-rule="evenodd" clip-rule="evenodd" d="M13.3911 6.46856C14.7877 6.46856 15.8204 6.78224 16.5699 7.32247L16.5736 7.32509C16.8098 7.49368 17.0059 7.67711 17.1672 7.87378C17.5955 8.39589 18.1246 9.01615 18.7477 9.50343C19.379 9.99719 20.1745 10.4083 21.1315 10.4083C22.1278 10.4083 23.0712 9.98324 23.6928 9.27429C24.3327 8.54452 24.6298 7.50152 24.2377 6.42003C23.9883 5.73202 23.652 5.08429 23.231 4.47826C22.2437 3.0477 20.8931 1.94883 19.2144 1.17223C17.5323 0.380217 15.6063 0 13.461 0C11.34 0 9.40579 0.381477 7.67677 1.16712C5.95089 1.94185 4.55344 3.04768 3.51817 4.49397L3.51539 4.49788C2.47106 5.9717 1.95898 7.68326 1.95898 9.5919C1.95898 11.924 2.73178 13.8792 4.32247 15.3528L4.32769 15.3576C5.43149 16.3655 6.79991 17.1659 8.41025 17.7753C8.17405 17.8406 7.93678 17.913 7.69848 17.9924C5.56137 18.7046 3.8165 19.828 2.51228 21.387C1.22423 22.9219 0.432215 24.7345 0.13164 26.798C-0.172174 28.8548 0.0533392 31.0066 0.772471 33.2382C1.48806 35.4588 2.54671 37.3251 3.96771 38.8047L3.97237 38.8095C5.40227 40.2784 7.08938 41.2582 9.02019 41.729L9.02279 41.7296C10.9854 42.2024 13.0686 42.048 15.246 41.3223C17.0688 40.7149 18.5951 39.8337 19.7869 38.6541L19.7908 38.6501C20.9667 37.473 21.7777 36.1048 22.1991 34.553L22.2001 34.5495C22.3539 33.975 22.4516 33.3904 22.4932 32.7964C22.5744 31.6355 21.997 30.7052 21.1689 30.1847C21.0994 30.141 21.0281 30.1001 20.9552 30.0621C22.0763 29.3568 22.9987 28.4784 23.703 27.4195L23.7049 27.4167C24.6816 25.9376 25.1588 24.2365 25.1588 22.3498C25.1588 20.9628 24.902 19.7026 24.3538 18.5987C23.8257 17.5354 23.1047 16.624 22.1967 15.8718C21.3278 15.1444 20.3473 14.5468 19.2609 14.0761C18.2115 13.6173 17.1195 13.2538 15.9858 12.985L13.3082 12.3042L13.2974 12.3016C12.7448 12.1678 12.1958 12.0026 11.6504 11.8057C11.1366 11.6203 10.6777 11.3964 10.27 11.137C9.9077 10.8976 9.63789 10.6213 9.44204 10.3115C9.28493 10.0498 9.18784 9.71565 9.1869 9.27129C9.19478 8.74476 9.34226 8.30135 9.62565 7.90837C9.91047 7.51339 10.3459 7.16406 10.9904 6.88769C11.6138 6.62035 12.4047 6.46856 13.3911 6.46856ZM17.6579 31.4655C18.3295 31.2917 18.9651 31.0719 19.5633 30.8047L19.5657 30.8036C19.6282 30.7754 19.6903 30.7469 19.7519 30.7179C20.7587 30.85 21.5888 31.6143 21.511 32.7254C21.474 33.2544 21.387 33.7748 21.2501 34.2865C20.8776 35.6579 20.161 36.8745 19.1001 37.9365C18.0363 38.9895 16.6494 39.801 14.9394 40.3708C12.9015 41.05 11.005 41.1781 9.24975 40.7553C7.5034 40.3295 5.97752 39.4461 4.67211 38.105C3.37266 36.752 2.38466 35.0258 1.70812 32.9264C1.02867 30.8179 0.82779 28.8244 1.10547 26.9458C1.21524 26.1917 1.39587 25.4777 1.64735 24.8038C1.65742 24.842 1.66827 24.8803 1.67992 24.9187C1.95483 25.824 2.34761 26.6572 2.86049 27.413L2.86316 27.4169C3.74668 28.7056 4.91339 29.7209 6.33988 30.468C6.4042 30.7142 6.47743 30.9648 6.55958 31.2198C7.01545 32.6344 7.61122 33.7829 8.3469 34.6652C9.07968 35.5386 9.90233 36.1275 10.8149 36.4321C11.7333 36.7247 12.6932 36.7041 13.6944 36.3704C14.4032 36.1342 14.9932 35.7879 15.4643 35.3316C15.9413 34.8633 16.2861 34.3044 16.4987 33.6548C16.5053 33.6347 16.5117 33.6146 16.518 33.5944C16.7598 32.815 17.1127 32.0235 17.6579 31.4655ZM19.5667 29.6987C19.1637 29.6835 18.7513 29.74 18.3514 29.8733C17.8929 30.0261 17.5041 30.2645 17.1737 30.5551C16.0151 30.8309 14.7263 30.9689 13.3071 30.9689C11.0787 30.9689 9.14401 30.618 7.50299 29.9164C7.39597 29.8704 7.29047 29.8229 7.1865 29.7742C7.00286 28.9356 6.94335 28.1795 6.99386 27.5009C7.07571 26.5175 7.3577 25.7466 7.80172 25.1424L7.80637 25.136C7.95624 24.9287 8.12489 24.7408 8.314 24.5725C8.84095 25.1869 9.51234 25.6502 10.3281 25.9624C11.2046 26.2943 12.1836 26.4602 13.2652 26.4602C14.3934 26.4602 15.3817 26.2895 16.2302 25.9482C17.088 25.5974 17.7593 25.1138 18.2442 24.4975C18.2811 24.4498 18.3166 24.4016 18.3508 24.3527C18.6196 24.0594 18.8342 23.7222 18.98 23.3577C19.3468 22.4415 19.2733 21.3434 18.5267 20.4579C18.1321 19.9898 17.6933 19.5697 17.211 19.1985C15.9406 18.2137 14.4719 17.6224 12.8285 17.4171C12.0567 17.3147 11.2693 17.3051 10.4679 17.3849C8.16182 16.7684 6.33438 15.8443 4.98553 14.6126C3.62423 13.3515 2.94359 11.6779 2.94359 9.5919C2.94359 7.87568 3.40046 6.37279 4.31421 5.08325C5.23728 3.79371 6.49135 2.79337 8.07641 2.08223C9.66148 1.3616 11.4563 1.00129 13.461 1.00129C15.4936 1.00129 17.2745 1.3616 18.8036 2.08223C20.3421 2.79337 21.5495 3.78423 22.426 5.05481C22.7986 5.59105 23.0946 6.16158 23.3139 6.7664C23.8178 8.15628 22.5882 9.407 21.1315 9.407C19.7997 9.407 18.7764 8.2724 17.9233 7.23238C17.7027 6.96342 17.4413 6.72114 17.1393 6.50554C16.1789 5.81336 14.9295 5.46727 13.3911 5.46727C12.3095 5.46727 11.3818 5.6332 10.6079 5.96507C9.83398 6.29694 9.24191 6.74733 8.83165 7.31624C8.4214 7.88516 8.21161 8.53467 8.20229 9.26478C8.20229 9.87162 8.33749 10.3979 8.60788 10.8435C8.8876 11.2892 9.26522 11.6684 9.74074 11.9813C10.2163 12.2848 10.7431 12.5408 11.3211 12.7494C11.8992 12.958 12.482 13.1334 13.0694 13.2756L15.7547 13.9583C16.8363 14.2143 17.8759 14.5604 18.8735 14.9966C19.8805 15.4328 20.7803 15.9827 21.5728 16.6464C22.3747 17.3102 23.0087 18.1114 23.4749 19.0501C23.9411 19.9888 24.1742 21.0887 24.1742 22.3498C24.1742 24.0566 23.7453 25.5594 22.8875 26.8585C22.1015 28.04 20.9946 28.9868 19.5667 29.6987ZM10.3939 18.3997L13.5931 19.2375L13.5957 19.2382C14.5822 19.4935 15.424 19.7806 16.1281 20.0949L16.1347 20.0979L16.1413 20.1007C16.8145 20.3894 17.2782 20.7272 17.5845 21.086L17.5906 21.0932C17.8378 21.3773 17.9918 21.7569 18.0007 22.3078C17.9927 22.8535 17.8525 23.3142 17.5857 23.7176C17.3182 23.9941 16.9766 24.2159 16.5842 24.3467C15.4231 24.7336 14.2013 24.1392 13.2113 23.411C12.9748 23.237 12.7203 23.0855 12.4477 22.9563C11.5388 22.5108 10.504 22.4815 9.34334 22.8683C9.05791 22.9635 8.7899 23.078 8.5393 23.2119C8.19141 22.7444 7.78115 22.2656 7.30332 21.8699C6.66766 21.3434 5.86012 20.9218 4.88598 20.9218C4.69378 20.9218 4.50391 20.9376 4.31812 20.9679C5.33013 20.1005 6.55913 19.4258 8.0051 18.9439C8.82341 18.6712 9.61968 18.4898 10.3939 18.3997ZM9.15074 24.0206C9.30768 23.9454 9.47394 23.8785 9.64996 23.8198C10.6229 23.4956 11.3871 23.548 12.0202 23.8583L12.0318 23.8639C12.2495 23.967 12.4498 24.0867 12.6342 24.2223C13.2054 24.6425 13.9517 25.1005 14.7868 25.3272C14.3272 25.4136 13.8211 25.4589 13.2652 25.4589C12.2836 25.4589 11.4239 25.3086 10.6736 25.0248C10.0492 24.7856 9.54804 24.4493 9.15074 24.0206ZM7.72037 23.7711C6.98915 22.7992 6.06415 21.9231 4.88598 21.9231C3.41353 21.9231 2.18623 23.1925 2.62069 24.6232C2.86748 25.4359 3.21753 26.1762 3.67085 26.8442C4.30544 27.7699 5.10749 28.5432 6.07699 29.1641C5.99261 28.5524 5.97108 27.9713 6.0124 27.4209C6.10653 26.2819 6.44007 25.3226 7.01303 24.543C7.22123 24.2549 7.45701 23.9976 7.72037 23.7711ZM7.52655 31.004C9.22 31.6566 11.1533 31.9702 13.3071 31.9702C14.334 31.9702 15.3064 31.901 16.222 31.7594C15.9299 32.2767 15.7261 32.8189 15.579 33.2931L15.5729 33.3126L15.5645 33.3386C15.4016 33.8362 15.1425 34.255 14.7829 34.6088C14.4327 34.9473 13.9765 35.2227 13.3878 35.4189C12.5647 35.6933 11.8177 35.7008 11.1155 35.4786C10.4056 35.2402 9.73106 34.7719 9.09695 34.0166C8.47927 33.2754 7.9485 32.2823 7.52655 31.004Z" fill="white"/>
<path d="M36.7224 17.0205C36.6702 16.5236 36.4501 16.1368 36.0622 15.8599C35.6781 15.583 35.1783 15.4446 34.5629 15.4446C34.1303 15.4446 33.7592 15.5109 33.4497 15.6437C33.1401 15.7764 32.9033 15.9566 32.7392 16.1842C32.5751 16.4117 32.4912 16.6715 32.4874 16.9636C32.4874 17.2063 32.5415 17.4168 32.6497 17.5951C32.7616 17.7733 32.9126 17.925 33.1028 18.0502C33.293 18.1716 33.5037 18.274 33.735 18.3574C33.9662 18.4409 34.1993 18.511 34.4343 18.5679L35.5084 18.841C35.941 18.9434 36.3569 19.0818 36.7559 19.2563C37.1587 19.4308 37.5186 19.6508 37.8356 19.9162C38.1564 20.1817 38.41 20.5022 38.5965 20.8777C38.783 21.2532 38.8762 21.6932 38.8762 22.1976C38.8762 22.8803 38.7046 23.4814 38.3615 24.0011C38.0184 24.5169 37.5224 24.9208 36.8734 25.2128C36.2282 25.5011 35.4469 25.6452 34.5294 25.6452C33.638 25.6452 32.8641 25.5049 32.2077 25.2242C31.555 24.9436 31.0441 24.5339 30.6749 23.9954C30.3094 23.4568 30.1117 22.8006 30.0819 22.0269H32.1238C32.1536 22.4327 32.2767 22.7703 32.493 23.0396C32.7093 23.3089 32.9909 23.5099 33.3378 23.6426C33.6884 23.7754 34.08 23.8418 34.5126 23.8418C34.9639 23.8418 35.3592 23.7735 35.6986 23.6369C36.0417 23.4966 36.3103 23.3032 36.5042 23.0567C36.6981 22.8063 36.797 22.5143 36.8007 22.1805C36.797 21.8771 36.7093 21.6268 36.5378 21.4296C36.3662 21.2285 36.1256 21.0617 35.8161 20.9289C35.5103 20.7924 35.1522 20.671 34.742 20.5648L33.4385 20.2235C32.4949 19.9769 31.749 19.6033 31.2007 19.1027C30.6562 18.5983 30.384 17.9288 30.384 17.0944C30.384 16.4079 30.5667 15.8068 30.9322 15.291C31.3014 14.7752 31.8031 14.375 32.4371 14.0906C33.0711 13.8023 33.7891 13.6582 34.5909 13.6582C35.404 13.6582 36.1163 13.8023 36.728 14.0906C37.3433 14.375 37.8263 14.7714 38.1769 15.2796C38.5275 15.784 38.7084 16.3643 38.7196 17.0205H36.7224Z" fill="white"/>
<path d="M44.3852 25.6395C43.5274 25.6395 42.7909 25.448 42.1755 25.0649C41.5638 24.6819 41.092 24.1528 40.7601 23.4777C40.4319 22.7987 40.2678 22.0174 40.2678 21.1337C40.2678 20.2462 40.4356 19.463 40.7713 18.7841C41.1069 18.1014 41.5806 17.5704 42.1923 17.1911C42.8076 16.8081 43.5349 16.6165 44.3741 16.6165C45.0715 16.6165 45.6887 16.7474 46.2258 17.0091C46.7666 17.267 47.1973 17.633 47.5181 18.1071C47.8388 18.5774 48.0216 19.1273 48.0663 19.7569H46.1307C46.0524 19.336 45.8659 18.9851 45.5713 18.7045C45.2803 18.42 44.8906 18.2778 44.402 18.2778C43.988 18.2778 43.6244 18.3916 43.3111 18.6191C42.9978 18.8429 42.7536 19.1653 42.5783 19.5863C42.4067 20.0073 42.3209 20.5117 42.3209 21.0996C42.3209 21.6951 42.4067 22.2071 42.5783 22.6357C42.7498 23.0604 42.9904 23.3885 43.2999 23.6199C43.6132 23.8474 43.9806 23.9612 44.402 23.9612C44.7004 23.9612 44.9671 23.9043 45.202 23.7906C45.4407 23.673 45.6402 23.5042 45.8006 23.2842C45.961 23.0642 46.071 22.7968 46.1307 22.482H48.0663C48.0179 23.1003 47.8388 23.6483 47.5293 24.1262C47.2197 24.6003 46.7983 24.972 46.265 25.2413C45.7316 25.5068 45.1051 25.6395 44.3852 25.6395Z" fill="white"/>
<path d="M49.7293 25.4689V16.7303H51.6929V18.1867H51.7824C51.939 17.6823 52.2076 17.2935 52.588 17.0205C52.9721 16.7436 53.4104 16.6052 53.9027 16.6052C54.0145 16.6052 54.1395 16.6109 54.2775 16.6222C54.4192 16.6298 54.5367 16.6431 54.6299 16.6621V18.5565C54.5441 18.5262 54.408 18.4996 54.2215 18.4769C54.0388 18.4503 53.8616 18.4371 53.6901 18.4371C53.3208 18.4371 52.9889 18.5186 52.6943 18.6817C52.4034 18.841 52.174 19.0629 52.0062 19.3473C51.8383 19.6318 51.7544 19.9599 51.7544 20.3316V25.4689H49.7293Z" fill="white"/>
<path d="M55.9754 25.4689V16.7303H58.0005V25.4689H55.9754ZM56.9935 15.4901C56.6728 15.4901 56.3968 15.382 56.1656 15.1658C55.9343 14.9458 55.8187 14.6822 55.8187 14.375C55.8187 14.064 55.9343 13.8004 56.1656 13.5842C56.3968 13.3642 56.6728 13.2543 56.9935 13.2543C57.318 13.2543 57.594 13.3642 57.8215 13.5842C58.0527 13.8004 58.1684 14.064 58.1684 14.375C58.1684 14.6822 58.0527 14.9458 57.8215 15.1658C57.594 15.382 57.318 15.4901 56.9935 15.4901Z" fill="white"/>
<path d="M60.083 28.7458V16.7303H62.0746V18.1754H62.1921C62.2965 17.963 62.4439 17.7373 62.6341 17.4984C62.8243 17.2556 63.0816 17.0489 63.4061 16.8782C63.7306 16.7038 64.1445 16.6165 64.648 16.6165C65.3119 16.6165 65.9105 16.7891 66.4438 17.1343C66.9809 17.4756 67.406 17.9819 67.7193 18.6533C68.0363 19.3208 68.1949 20.14 68.1949 21.111C68.1949 22.0705 68.0401 22.886 67.7305 23.5573C67.421 24.2286 66.9995 24.7406 66.4662 25.0934C65.9329 25.4461 65.3287 25.6225 64.6536 25.6225C64.1613 25.6225 63.7529 25.539 63.4285 25.3721C63.104 25.2053 62.8429 25.0042 62.6452 24.7691C62.4513 24.5301 62.3003 24.3045 62.1921 24.0921H62.1082V28.7458H60.083ZM62.069 21.0996C62.069 21.6647 62.1473 22.1597 62.304 22.5845C62.4644 23.0092 62.6937 23.3411 62.9921 23.5801C63.2942 23.8152 63.6597 23.9328 64.0886 23.9328C64.5361 23.9328 64.911 23.8114 65.2131 23.5687C65.5152 23.3221 65.7427 22.9865 65.8956 22.5617C66.0522 22.1331 66.1305 21.6457 66.1305 21.0996C66.1305 20.5572 66.0541 20.0755 65.9012 19.6545C65.7483 19.2335 65.5208 18.9036 65.2187 18.6646C64.9166 18.4257 64.5399 18.3062 64.0886 18.3062C63.656 18.3062 63.2886 18.4219 62.9865 18.6533C62.6844 18.8846 62.455 19.2089 62.2984 19.6261C62.1455 20.0433 62.069 20.5345 62.069 21.0996Z" fill="white"/>
<path d="M74.22 16.7303V18.3233H69.2802V16.7303H74.22ZM70.4997 14.6367H72.5249V22.8405C72.5249 23.1173 72.5659 23.3297 72.648 23.4777C72.7337 23.6218 72.8456 23.7204 72.9836 23.7735C73.1216 23.8266 73.2745 23.8531 73.4424 23.8531C73.5692 23.8531 73.6848 23.8437 73.7892 23.8247C73.8974 23.8057 73.9794 23.7887 74.0354 23.7735L74.3766 25.3835C74.2685 25.4214 74.1137 25.4632 73.9123 25.5087C73.7146 25.5542 73.4722 25.5807 73.185 25.5883C72.6778 25.6035 72.2209 25.5257 71.8144 25.3551C71.4079 25.1806 71.0853 24.9113 70.8466 24.5472C70.6116 24.1831 70.496 23.728 70.4997 23.1818V14.6367Z" fill="white"/>
<path d="M79.5696 25.6395C78.7118 25.6395 77.9752 25.448 77.3598 25.0649C76.7482 24.6819 76.2764 24.1528 75.9445 23.4777C75.6162 22.7987 75.4521 22.0174 75.4521 21.1337C75.4521 20.2462 75.62 19.463 75.9556 18.7841C76.2913 18.1014 76.765 17.5704 77.3766 17.1911C77.992 16.8081 78.7192 16.6165 79.5584 16.6165C80.2558 16.6165 80.8731 16.7474 81.4101 17.0091C81.9509 17.267 82.3817 17.633 82.7024 18.1071C83.0232 18.5774 83.2059 19.1273 83.2507 19.7569H81.315C81.2367 19.336 81.0502 18.9851 80.7556 18.7045C80.4647 18.42 80.075 18.2778 79.5864 18.2778C79.1724 18.2778 78.8088 18.3916 78.4955 18.6191C78.1822 18.8429 77.9379 19.1653 77.7626 19.5863C77.5911 20.0073 77.5053 20.5117 77.5053 21.0996C77.5053 21.6951 77.5911 22.2071 77.7626 22.6357C77.9342 23.0604 78.1747 23.3885 78.4843 23.6199C78.7976 23.8474 79.1649 23.9612 79.5864 23.9612C79.8847 23.9612 80.1514 23.9043 80.3864 23.7906C80.6251 23.673 80.8246 23.5042 80.985 23.2842C81.1453 23.0642 81.2554 22.7968 81.315 22.482H83.2507C83.2022 23.1003 83.0232 23.6483 82.7136 24.1262C82.4041 24.6003 81.9826 24.972 81.4493 25.2413C80.916 25.5068 80.2894 25.6395 79.5696 25.6395Z" fill="white"/>
<path d="M88.7178 25.6395C87.8562 25.6395 87.1122 25.4575 86.4856 25.0934C85.8628 24.7255 85.3835 24.2059 85.0479 23.5345C84.7122 22.8594 84.5444 22.0648 84.5444 21.1508C84.5444 20.2519 84.7122 19.463 85.0479 18.7841C85.3873 18.1014 85.8609 17.5704 86.4688 17.1911C87.0768 16.8081 87.791 16.6165 88.6115 16.6165C89.1411 16.6165 89.6408 16.7038 90.1108 16.8782C90.5844 17.0489 91.0021 17.3144 91.3639 17.6747C91.7294 18.035 92.0166 18.494 92.2254 19.0515C92.4343 19.6052 92.5387 20.2652 92.5387 21.0313V21.6628H85.4954V20.2747H90.5975C90.5937 19.8802 90.5098 19.5294 90.3457 19.2222C90.1816 18.9112 89.9523 18.6665 89.6576 18.4883C89.3667 18.31 89.0273 18.2209 88.6395 18.2209C88.2255 18.2209 87.8618 18.3233 87.5486 18.5281C87.2353 18.7291 86.991 18.9946 86.8157 19.3246C86.6441 19.6508 86.5565 20.0092 86.5528 20.3998V21.6116C86.5528 22.1198 86.6441 22.556 86.8269 22.9201C87.0096 23.2804 87.2651 23.5573 87.5933 23.7507C87.9215 23.9404 88.3057 24.0352 88.7457 24.0352C89.0404 24.0352 89.3071 23.9935 89.5457 23.91C89.7844 23.8228 89.9914 23.6957 90.1667 23.5289C90.342 23.362 90.4744 23.1553 90.5639 22.9087L92.4548 23.1249C92.3355 23.6332 92.108 24.0769 91.7723 24.4562C91.4404 24.8317 91.0152 25.1237 90.4968 25.3323C89.9784 25.5371 89.3854 25.6395 88.7178 25.6395Z" fill="white"/>
<path d="M96.2772 20.3486V25.4689H94.252V16.7303H96.1876V18.2152H96.2883C96.486 17.7259 96.8012 17.3372 97.2338 17.0489C97.6702 16.7607 98.2091 16.6165 98.8506 16.6165C99.4436 16.6165 99.9601 16.7455 100.4 17.0034C100.844 17.2613 101.187 17.6349 101.43 18.1242C101.676 18.6134 101.797 19.207 101.793 19.9049V25.4689H99.768V20.2235C99.768 19.6394 99.6189 19.1823 99.3205 18.8524C99.0259 18.5224 98.6175 18.3574 98.0953 18.3574C97.741 18.3574 97.4259 18.4371 97.1499 18.5964C96.8776 18.7519 96.6632 18.9775 96.5065 19.2734C96.3536 19.5692 96.2772 19.9276 96.2772 20.3486Z" fill="white"/>
<path d="M108.143 16.7303V18.3233H103.203V16.7303H108.143ZM104.423 14.6367H106.448V22.8405C106.448 23.1173 106.489 23.3297 106.571 23.4777C106.657 23.6218 106.768 23.7204 106.906 23.7735C107.044 23.8266 107.197 23.8531 107.365 23.8531C107.492 23.8531 107.608 23.8437 107.712 23.8247C107.82 23.8057 107.902 23.7887 107.958 23.7735L108.299 25.3835C108.191 25.4214 108.037 25.4632 107.835 25.5087C107.637 25.5542 107.395 25.5807 107.108 25.5883C106.601 25.6035 106.144 25.5257 105.737 25.3551C105.331 25.1806 105.008 24.9113 104.769 24.5472C104.534 24.1831 104.419 23.728 104.423 23.1818V14.6367Z" fill="white"/>
<path d="M109.836 25.4689V16.7303H111.8V18.1867H111.89C112.046 17.6823 112.315 17.2935 112.695 17.0205C113.079 16.7436 113.518 16.6052 114.01 16.6052C114.122 16.6052 114.247 16.6109 114.385 16.6222C114.526 16.6298 114.644 16.6431 114.737 16.6621V18.5565C114.651 18.5262 114.515 18.4996 114.329 18.4769C114.146 18.4503 113.969 18.4371 113.797 18.4371C113.428 18.4371 113.096 18.5186 112.802 18.6817C112.511 18.841 112.281 19.0629 112.113 19.3473C111.946 19.6318 111.862 19.9599 111.862 20.3316V25.4689H109.836Z" fill="white"/>
<path d="M118.401 25.6452C117.857 25.6452 117.367 25.5466 116.93 25.3494C116.498 25.1484 116.154 24.8525 115.901 24.4619C115.651 24.0712 115.526 23.5895 115.526 23.0168C115.526 22.5238 115.615 22.116 115.794 21.7937C115.974 21.4713 116.218 21.2134 116.527 21.0199C116.837 20.8265 117.186 20.6805 117.573 20.5819C117.965 20.4795 118.37 20.4055 118.787 20.36C119.291 20.3069 119.699 20.2595 120.013 20.2178C120.326 20.1723 120.553 20.104 120.695 20.013C120.841 19.9181 120.913 19.7721 120.913 19.5749V19.5408C120.913 19.1122 120.788 18.7803 120.539 18.5452C120.289 18.31 119.929 18.1924 119.459 18.1924C118.963 18.1924 118.569 18.3024 118.278 18.5224C117.991 18.7424 117.797 19.0022 117.697 19.3018L115.806 19.0287C115.955 18.4978 116.201 18.054 116.544 17.6975C116.887 17.3372 117.307 17.0679 117.803 16.8896C118.299 16.7076 118.847 16.6165 119.448 16.6165C119.862 16.6165 120.274 16.6658 120.684 16.7645C121.094 16.8631 121.469 17.0262 121.808 17.2537C122.148 17.4775 122.42 17.7828 122.625 18.1697C122.834 18.5565 122.938 19.0401 122.938 19.6204V25.4689H120.992V24.2684H120.925C120.801 24.5112 120.628 24.7387 120.404 24.9511C120.184 25.1597 119.906 25.3285 119.571 25.4575C119.239 25.5826 118.849 25.6452 118.401 25.6452ZM118.927 24.1319C119.334 24.1319 119.686 24.0504 119.985 23.8873C120.283 23.7204 120.512 23.5004 120.673 23.2273C120.837 22.9542 120.919 22.6565 120.919 22.3341V21.3044C120.856 21.3575 120.747 21.4068 120.594 21.4523C120.445 21.4978 120.277 21.5377 120.091 21.5718C119.904 21.6059 119.72 21.6363 119.537 21.6628C119.354 21.6894 119.196 21.7121 119.062 21.7311C118.76 21.7728 118.489 21.8411 118.25 21.9359C118.012 22.0307 117.823 22.1635 117.685 22.3341C117.547 22.501 117.478 22.7172 117.478 22.9827C117.478 23.362 117.615 23.6483 117.887 23.8418C118.159 24.0352 118.506 24.1319 118.927 24.1319Z" fill="white"/>
<path d="M127 13.8175V25.4689H124.975V13.8175H127Z" fill="white"/>
</svg>
